PathFileType	4	(X/Y/Z)	OpenSim_Sub09_CSBaseline_Gyro.trc
DataRate	CameraRate	NumFrames	NumMarkers	Units	OrigDataRate	OrigDataStartFrame	OrigNumFrames
100	100	23	8	m	100	4381	5840
Frame#	Time	torso_imu_offset_imu	pelvis_imu_offset_imu	tibia_r_imu_offset_imu	femur_r_imu_offset_imu	tibia_l_imu_offset_imu	femur_l_imu_offset_imu	toes_r_imu_offset_imu	toes_l_imu_offset_imu
				X1	Y1	Z1	X2	Y2	Z2	X3	Y3	Z3	X4	Y4	Z4	X5	Y5	Z5	X6	Y6	Z6	X7	Y7	Z7	X8		Y8	Z8	

4381	43.80000000	0.32561702	-0.17289375	0.19443602	0.13877525	0.17718312	-0.29212884	-0.19031314	-0.07842359	-0.14930866	-0.18376982	-0.10072376	-0.96871200	-0.40272456	-0.30146715	-3.48522737	-0.84207124	0.14281259	-0.59585533	-0.02785743	-0.07838476	-0.03134930	1.46097330	2.98153002	-2.28449191
4382	43.81000000	0.27118363	-0.18219874	0.18310750	0.15660077	0.17817823	-0.23366006	-0.29314766	-0.10520075	-0.14889329	-0.13284156	-0.09013249	-0.95491087	-0.53229216	-0.18571760	-3.66353735	-0.72417166	0.13409090	-0.46374585	-0.02609694	-0.06315171	-0.04149182	1.48944431	3.18417233	-2.36721960
4383	43.82000000	0.22184684	-0.18929130	0.16996792	0.16205975	0.18259754	-0.18407497	-0.39196338	-0.13794105	-0.21657885	-0.08299741	-0.08165300	-0.94289801	-0.62946682	-0.01832357	-3.81525509	-0.64006788	0.10349788	-0.37991886	-0.00565067	-0.05317915	-0.04992506	1.51083517	3.32247077	-2.41146551
4384	43.83000000	0.17956019	-0.19402408	0.15717965	0.17279676	0.20408422	-0.14633050	-0.47220822	-0.10531019	-0.22731764	-0.00351080	-0.07131605	-0.94993024	-0.62605056	0.15500358	-3.92874744	-0.49346657	0.08542590	-0.32944901	0.00762615	-0.05035878	-0.05948082	1.50720246	3.39790572	-2.40412280
4385	43.84000000	0.15408480	-0.19225377	0.14178705	0.18583410	0.23475685	-0.12625815	-0.45115103	-0.09717199	-0.21630613	0.08351470	-0.07069918	-0.95623781	-0.46132771	0.27625101	-4.00584411	-0.30765472	0.08768702	-0.27660906	0.02738933	-0.03977325	-0.06544060	1.44786500	3.44663736	-2.35345239
4386	43.85000000	0.13332069	-0.19340547	0.12083164	0.19916028	0.26000645	-0.09778805	-0.38104713	-0.08180880	-0.24843488	0.17532829	-0.06640256	-0.96341195	-0.12144575	0.29012842	-4.05576750	-0.20514465	0.08835024	-0.17615976	0.03327452	-0.04279005	-0.07807155	1.30092295	3.48236508	-2.26759927
4387	43.86000000	0.11271564	-0.19300181	0.10587633	0.20471104	0.26976173	-0.06458248	-0.27581770	-0.03919455	-0.29347330	0.26030234	-0.06151766	-0.97323408	0.24335523	0.24304113	-4.10035453	-0.09792620	0.08632270	-0.07040629	0.04995793	-0.03835440	-0.08563691	1.10738884	3.49199831	-2.17264716
4388	43.87000000	0.09277981	-0.19563584	0.08791420	0.20101415	0.26288081	-0.02863022	-0.18035800	-0.02338741	-0.34745870	0.32197895	-0.07281405	-0.96607538	0.48033234	0.19981874	-4.11952786	0.14374787	-0.03676254	-0.01225528	0.06204925	-0.03146910	-0.09176137	0.89475988	3.48050159	-2.07743478
4389	43.88000000	0.07265871	-0.20359039	0.07586734	0.19041611	0.25101408	-0.00509860	-0.12238513	-0.01254991	-0.38460087	0.35834292	-0.08958554	-0.94321758	0.61593511	0.15845850	-4.12212325	0.31314562	-0.09447137	0.03127825	0.07291203	-0.02906441	-0.09992619	0.73440829	3.41578990	-1.99749742
4390	43.89000000	0.05014335	-0.21845437	0.06210754	0.18441689	0.23932791	0.00492135	-0.10926899	0.00202301	-0.42055743	0.37856775	-0.07879984	-0.91860516	0.72093285	0.08567654	-4.14114147	0.29322681	-0.13160538	0.11140084	0.08439128	-0.03696584	-0.10570240	0.62034166	3.30669760	-1.92435768
4391	43.90000000	0.03339277	-0.23756117	0.05301747	0.17063107	0.22497722	0.02015913	-0.14753977	-0.00180290	-0.46539328	0.37854533	-0.08420867	-0.88976588	0.82582586	-0.00432363	-4.19167134	0.24482339	-0.18755291	0.20319757	0.09773823	-0.03182317	-0.11813767	0.55125417	3.16129852	-1.87274592
4392	43.91000000	0.01747455	-0.24615066	0.04295793	0.14566873	0.22270881	0.02579373	-0.20070506	-0.02875764	-0.57868073	0.35626875	-0.10043769	-0.86402429	0.80543453	-0.04717027	-4.20305731	0.22315533	-0.19433111	0.25200544	0.10151325	-0.02396933	-0.12830648	0.51999530	2.99019079	-1.83299553
4393	43.92000000	-0.00016122	-0.25072546	0.03713247	0.11252129	0.21744208	0.03481904	-0.26973413	-0.04866538	-0.63175903	0.32232852	-0.11871938	-0.83388796	0.63364440	-0.04990396	-4.17552545	0.20232096	-0.19274956	0.29578549	0.11414578	-0.02527565	-0.14594982	0.51830643	2.79626588	-1.78773454
4394	43.93000000	-0.01714298	-0.24873297	0.02565799	0.07963517	0.20354654	0.04300264	-0.34585117	-0.06827731	-0.66369416	0.26920258	-0.12034558	-0.79474231	0.43845561	-0.06278298	-4.12625142	0.15483504	-0.21673803	0.36417856	0.12301084	-0.02777982	-0.16211676	0.56232540	2.55670879	-1.75845861
4395	43.94000000	-0.03069551	-0.24478433	0.01002291	0.05662842	0.18977479	0.04195913	-0.37077243	-0.08951108	-0.72349227	0.16806226	-0.11944728	-0.72385431	0.23625505	-0.12443582	-4.06043601	0.05991136	-0.24333296	0.41791684	0.13991971	-0.03185549	-0.18633388	0.63847063	2.32048502	-1.74938287
4396	43.95000000	-0.04621172	-0.23730706	-0.00430210	0.02654372	0.17920147	0.02281912	-0.34563219	-0.10844192	-0.76922697	0.05253826	-0.11227273	-0.66147935	0.11641589	-0.21532698	-3.98947197	-0.07399827	-0.22800637	0.42524244	0.14694575	-0.03070728	-0.21165292	0.65699420	2.13909424	-1.80973641
4397	43.96000000	-0.05930238	-0.22764582	-0.02342712	0.00564339	0.16069190	0.00275316	-0.27602503	-0.09505626	-0.82235489	-0.05927028	-0.09386449	-0.60077091	-0.13120303	-0.24345047	-3.83954659	-0.18523085	-0.18879835	0.37308712	0.16256991	-0.04865245	-0.21517954	0.73522493	2.03905441	-1.96863135
4398	43.97000000	-0.07165516	-0.22318403	-0.03394863	-0.00124286	0.15882243	-0.02444798	-0.14040881	-0.07964820	-0.86303576	-0.15751493	-0.06372160	-0.55169985	-0.45363181	-0.24374503	-3.61117574	-0.25245489	-0.15974502	0.34041847	0.13931874	-0.05976156	-0.20994953	0.75631701	1.95514078	-2.17942063
4399	43.98000000	-0.07703643	-0.20963473	-0.05394092	0.01033995	0.16049214	-0.05043823	-0.09091183	-0.05412958	-0.89140592	-0.23850387	-0.03020711	-0.52333191	-0.76261042	-0.08723041	-3.35841918	-0.29947041	-0.17272315	0.31022828	0.12183547	-0.09168049	-0.20245099	0.92268649	1.72887121	-2.53050034
4400	43.99000000	-0.07164861	-0.19780039	-0.06393325	0.03341925	0.15173197	-0.07260205	-0.08838446	-0.04706771	-0.91810427	-0.28350482	-0.02004423	-0.51052365	-1.03470940	0.07331089	-3.00382599	-0.31139567	-0.18373856	0.27370927	0.11104727	-0.11857856	-0.19906136	0.92078796	1.44141218	-2.73905379
4401	44.00000000	-0.05001476	-0.18377161	-0.07282850	0.03549896	0.13354808	-0.07488664	-0.08096020	-0.06889029	-0.96874623	-0.26258550	-0.00086508	-0.50649484	-0.75354021	0.01082506	-2.75506033	-0.22722824	-0.16069531	0.20979557	0.10098685	-0.14350721	-0.19103791	0.71905794	1.15696913	-2.71658974
4402	44.01000000	-0.02553909	-0.16689519	-0.07816795	0.02663453	0.12552495	-0.07806606	-0.09205678	-0.06372864	-1.01570009	-0.16856568	0.02689887	-0.49535154	-0.53421859	0.06294899	-2.46474529	-0.09850666	-0.15277491	0.11834723	0.06097238	-0.17841217	-0.17183383	0.49022001	0.93865003	-2.58162820
4403	44.02000000	-0.00726828	-0.15417777	-0.08297421	0.02031908	0.12993836	-0.08182900	-0.09457112	-0.05406362	-1.03546774	-0.01319115	0.07162629	-0.50709853	-0.33674907	0.04579228	-2.00314636	-0.02992602	-0.18461909	-0.00034104	-0.02204204	-0.23347551	-0.16658885	0.24899998	0.78992364	-2.35810723
